<svg id="Ebene_1" data-name="Ebene 1" xmlns="http://www.w3.org/2000/svg" viewBox="0 0 27 26"><defs><style>.cls-1{fill:#f60;}</style></defs><title>Zeichenfläche 1</title><g id="Navigation"><g id="Web-Icon"><path id="sig-in" class="cls-1" d="M18.5,22.43l-2.94-8h-3.8l-2.95,8a10.62,10.62,0,0,1,0-18.86l2.95,8H15.5l2.94-8a10.62,10.62,0,0,1,0,18.86"/><path id="sig-out" d="M16.88.27,13.64,9.16,10.41.26a13.15,13.15,0,0,0,0,25.48l3.24-8.9,3.24,8.9a13.14,13.14,0,0,0,0-25.47Zm1.56,22.08-2.92-8H11.77l-2.93,8a10.51,10.51,0,0,1,0-18.7l2.93,8H15.5l2.92-8a10.51,10.51,0,0,1,0,18.7"/></g></g></svg>