<svg xmlns="http://www.w3.org/2000/svg" xmlns:xlink="http://www.w3.org/1999/xlink" viewBox="0 0 114 22"><defs><style>.cls-1{fill:none;}.cls-2{fill:#373737;}.cls-3{clip-path:url(#clip-path);}</style><clipPath id="clip-path"><rect class="cls-1" x="0.08" width="113.84" height="21.98"/></clipPath></defs><title>temp-volcano-logo-hybrid</title><g id="Temperatur_VOLCANO" data-name="Temperatur VOLCANO"><g id="VOLCANO-Logo-Hybrid"><polygon class="cls-2" points="29.61 12.93 29.61 20.61 31.59 22 33.57 20.61 33.57 12.93 29.61 12.93"/><polygon class="cls-2" points="73.72 12.93 82.79 22 84.99 22 84.99 19.23 78.69 12.93 73.72 12.93"/><g class="cls-3"><path class="cls-2" d="M90,0l2,1.38V9.6l-1.85,1.3a.23.23,0,0,1-.25,0L88,9.6V1.38Z"/><path class="cls-2" d="M2.18,10.9,4,9.6V1.39L2.06,0l-2,1.39V9.6l1.85,1.3a.23.23,0,0,0,.25,0"/><path class="cls-2" d="M.08,12.37v8.22l2,1.39,2-1.39V12.37L2.18,11.08a.2.2,0,0,0-.25,0Z"/><path class="cls-2" d="M88,12.37v8.22L90,22l2-1.39V12.37l-1.85-1.29a.2.2,0,0,0-.25,0Z"/><path class="cls-2" d="M113.17,19.73l-1.23.86-2-1.38V12.37l1.86-1.29a.2.2,0,0,1,.25,0l1.85,1.29v5.92a1.75,1.75,0,0,1-.75,1.44"/><path class="cls-2" d="M99,12.37l-1.86-1.29a.2.2,0,0,0-.25,0L95,12.37V22l4-2.77Z"/><path class="cls-2" d="M111.37,21l-.72.51a2.68,2.68,0,0,1-1.52.48h-13l4-2.77h8.69Z"/><path class="cls-2" d="M108.81,2.77,111.37,1l-.72-.5A2.68,2.68,0,0,0,109.13,0h-13l4,2.77Z"/><path class="cls-2" d="M99,9.6l-1.86,1.3a.23.23,0,0,1-.25,0L95,9.6V0l4,2.77Z"/><path class="cls-2" d="M111.82,10.9,110,9.6V2.77l2-1.38,1.23.85a1.77,1.77,0,0,1,.75,1.45V9.6l-1.85,1.3a.23.23,0,0,1-.25,0"/></g><polygon class="cls-2" points="16.13 11.01 14.15 9.63 5.08 9.63 3.1 11.01 5.08 12.4 14.15 12.4 16.13 11.01"/><g class="cls-3"><path class="cls-2" d="M17.13,10.9,19,9.6V1.39L17,0,15,1.39V9.6l1.86,1.3a.23.23,0,0,0,.25,0"/><path class="cls-2" d="M15,12.37v8.22L17,22l2-1.39V12.37l-1.85-1.29a.2.2,0,0,0-.25,0Z"/><path class="cls-2" d="M24.16,10.9,26,9.6V1.39L24,0l-2,1.39V9.6l1.85,1.3a.23.23,0,0,0,.25,0"/></g><polygon class="cls-2" points="38.1 11.01 36.13 9.63 27.05 9.63 25.07 11.01 27.05 12.4 36.13 12.4 38.1 11.01"/><g class="cls-3"><path class="cls-2" d="M39.1,10.9,41,9.6V1.39L39,0,37,1.39V9.6l1.85,1.3a.23.23,0,0,0,.25,0"/><path class="cls-2" d="M62.18,19.73,61,20.59l-2-1.38V12.37l1.85-1.29a.2.2,0,0,1,.25,0l1.85,1.29v5.92a1.75,1.75,0,0,1-.75,1.44"/></g><polygon class="cls-2" points="60.08 11.01 58.1 9.63 49.03 9.63 47.05 11.01 49.03 12.4 58.1 12.4 60.08 11.01"/><g class="cls-3"><path class="cls-2" d="M48,12.37l-1.85-1.29a.2.2,0,0,0-.25,0L44,12.37V22l4-2.77Z"/><path class="cls-2" d="M60.38,21l-.72.51a2.63,2.63,0,0,1-1.51.48h-13l4-2.77h8.69Z"/><path class="cls-2" d="M57.83,2.77,60.38,1l-.72-.5A2.63,2.63,0,0,0,58.15,0h-13l4,2.77Z"/><path class="cls-2" d="M48,9.6l-1.85,1.3a.23.23,0,0,1-.25,0L44,9.6V0l4,2.77Z"/><path class="cls-2" d="M60.83,10.9,59,9.6V2.77l2-1.38,1.22.85a1.77,1.77,0,0,1,.75,1.45V9.6l-1.85,1.3a.23.23,0,0,1-.25,0"/></g><polygon class="cls-2" points="82.06 11.01 80.08 9.63 71.01 9.63 69.03 11.01 71.01 12.4 80.08 12.4 82.06 11.01"/><g class="cls-3"><path class="cls-2" d="M79.81,2.77,82.36,1l-.72-.5A2.68,2.68,0,0,0,80.12,0h-13l4,2.77Z"/><path class="cls-2" d="M70,9.6l-1.86,1.3a.23.23,0,0,1-.25,0L66,9.6V0l4,2.77Z"/><path class="cls-2" d="M82.81,10.9,81,9.6V2.77l2-1.38,1.23.85a1.77,1.77,0,0,1,.75,1.45V9.6l-1.85,1.3a.23.23,0,0,1-.25,0"/><path class="cls-2" d="M66,12.37v8.22L68,22l2-1.39V12.37l-1.86-1.29a.2.2,0,0,0-.25,0Z"/></g></g></g></svg>