<svg xmlns="http://www.w3.org/2000/svg" viewBox="0 0 114 22">
    <defs>
        <clipPath id="clip-path">
            <path style="fill:none" d="M.08 0h113.84v21.98H.08z"/>
        </clipPath>
        <style>
            .cls-2{fill:#373737}.cls-3{clip-path:url(#clip-path)}
        </style>
    </defs>
    <g id="Temperatur_VOLCANO">
        <g id="VOLCANO-Logo-Hybrid">
            <path class="cls-2" d="M29.61 12.93v7.68L31.59 22l1.98-1.39v-7.68h-3.96zM73.72 12.93 82.79 22h2.2v-2.77l-6.3-6.3h-4.97z"/>
            <g class="cls-3">
                <path class="cls-2" d="m90 0 2 1.38V9.6l-1.85 1.3a.23.23 0 0 1-.25 0L88 9.6V1.38ZM2.18 10.9 4 9.6V1.39L2.06 0l-2 1.39V9.6l1.85 1.3a.23.23 0 0 0 .25 0M.08 12.37v8.22l2 1.39 2-1.39v-8.22l-1.9-1.29a.2.2 0 0 0-.25 0ZM88 12.37v8.22L90 22l2-1.39v-8.24l-1.85-1.29a.2.2 0 0 0-.25 0ZM113.17 19.73l-1.23.86-2-1.38v-6.84l1.86-1.29a.2.2 0 0 1 .25 0l1.85 1.29v5.92a1.75 1.75 0 0 1-.75 1.44M99 12.37l-1.86-1.29a.2.2 0 0 0-.25 0L95 12.37V22l4-2.77ZM111.37 21l-.72.51a2.68 2.68 0 0 1-1.52.48h-13l4-2.77h8.69ZM108.81 2.77 111.37 1l-.72-.5a2.68 2.68 0 0 0-1.52-.5h-13l4 2.77ZM99 9.6l-1.86 1.3a.23.23 0 0 1-.25 0L95 9.6V0l4 2.77ZM111.82 10.9 110 9.6V2.77l2-1.38 1.23.85a1.77 1.77 0 0 1 .75 1.45V9.6l-1.85 1.3a.23.23 0 0 1-.25 0"/>
            </g>
            <path class="cls-2" d="m16.13 11.01-1.98-1.38H5.08L3.1 11.01l1.98 1.39h9.07l1.98-1.39z"/>
            <g class="cls-3">
                <path class="cls-2" d="M17.13 10.9 19 9.6V1.39L17 0l-2 1.39V9.6l1.86 1.3a.23.23 0 0 0 .25 0M15 12.37v8.22L17 22l2-1.39v-8.24l-1.85-1.29a.2.2 0 0 0-.25 0ZM24.16 10.9 26 9.6V1.39L24 0l-2 1.39V9.6l1.85 1.3a.23.23 0 0 0 .25 0"/>
            </g>
            <path class="cls-2" d="m38.1 11.01-1.97-1.38h-9.08l-1.98 1.38 1.98 1.39h9.08l1.97-1.39z"/>
            <g class="cls-3">
                <path class="cls-2" d="M39.1 10.9 41 9.6V1.39L39 0l-2 1.39V9.6l1.85 1.3a.23.23 0 0 0 .25 0M62.18 19.73l-1.18.86-2-1.38v-6.84l1.85-1.29a.2.2 0 0 1 .25 0l1.85 1.29v5.92a1.75 1.75 0 0 1-.75 1.44"/>
            </g>
            <path class="cls-2" d="M60.08 11.01 58.1 9.63h-9.07l-1.98 1.38 1.98 1.39h9.07l1.98-1.39z"/>
            <g class="cls-3">
                <path class="cls-2" d="m48 12.37-1.85-1.29a.2.2 0 0 0-.25 0L44 12.37V22l4-2.77ZM60.38 21l-.72.51a2.63 2.63 0 0 1-1.51.48h-13l4-2.77h8.69ZM57.83 2.77 60.38 1l-.72-.5a2.63 2.63 0 0 0-1.51-.5h-13l4 2.77ZM48 9.6l-1.85 1.3a.23.23 0 0 1-.25 0L44 9.6V0l4 2.77ZM60.83 10.9 59 9.6V2.77l2-1.38 1.22.85a1.77 1.77 0 0 1 .75 1.45V9.6l-1.85 1.3a.23.23 0 0 1-.25 0"/>
            </g>
            <path class="cls-2" d="m82.06 11.01-1.98-1.38h-9.07l-1.98 1.38 1.98 1.39h9.07l1.98-1.39z"/>
            <g class="cls-3">
                <path class="cls-2" d="M79.81 2.77 82.36 1l-.72-.5a2.68 2.68 0 0 0-1.52-.5h-13l4 2.77ZM70 9.6l-1.86 1.3a.23.23 0 0 1-.25 0L66 9.6V0l4 2.77ZM82.81 10.9 81 9.6V2.77l2-1.38 1.23.85a1.77 1.77 0 0 1 .75 1.45V9.6l-1.85 1.3a.23.23 0 0 1-.25 0M66 12.37v8.22L68 22l2-1.39v-8.24l-1.86-1.29a.2.2 0 0 0-.25 0Z"/>
            </g>
        </g>
    </g>
</svg>
