<svg xmlns="http://www.w3.org/2000/svg" viewBox="0 0 138 42"><defs><style>.cls-1{fill:#fff;}.cls-2{fill:#f6f6f6;}.cls-3{fill:#373737;}</style></defs><title>temp-volcano-logo-off</title><g id="Temperatur_VOLCANO" data-name="Temperatur VOLCANO"><g id="VOLCANO-Logo-Line-Off"><rect class="cls-1" width="138" height="42"/></g><rect class="cls-2" width="138" height="21"/><path id="VOLCANO-Logo-Off" class="cls-3" d="M6.12,4.16c2.88-.06,3.59.41,3.32,3s-2.33,16.65-2.67,21c1.3-2.05,6.75-10.07,9.22-13.56s6-8.49,9.45-13C26.73-.08,28,.46,29.35,1.49s1.94,2.33.78,3.9-6.79,9.32-9,12.61a20.86,20.86,0,0,1,4.29-1.65,5.8,5.8,0,0,1,4.8.82c.62.69,1,1,1.64.76a27.13,27.13,0,0,0,3.84-1.65,15.12,15.12,0,0,0,5.41-4.11,69.22,69.22,0,0,1,5.76-9.79C48.39.12,49.56-.5,51.4.39s1.51,3.5.49,5.62-2.68,4.25-3.29,5.41S46.2,16.15,45,18.54a54.83,54.83,0,0,0-3,7.61c-.27,1.23-.21,1.51.55.82A74.77,74.77,0,0,0,48,20.87a20.68,20.68,0,0,1,6.85-9.38c2.67-2.06,6-2.67,8.09-2.06A3,3,0,0,1,64.76,14c-1.23,1.65-2.33,1.79-2.94,1.51a2.12,2.12,0,0,0-2.19,0c-2.54,1.64-4.11,4.66-5.35,8.15-.47,1.35-.33,2.53,0,2.33,2.47-1.51,5.69-4.11,8.15-6,.55-1.5,1.86-3.49,4.73-6.64s7-6,9.38-6.65a13.79,13.79,0,0,1,6.58.14c1.23.34,3.11.78,4.52,1.23,1.92.62,1.71,1.85,1,3.15s-2.81,5.07-3.77,7.4a44.73,44.73,0,0,0,4.72-4.11c2.06-2,5.9-6.3,9.46-10.14,1.15-1.24,3-.41,3.77.28s1.71,1.85.89,3.29a35.6,35.6,0,0,0-3,6.09c1.23-1.16,4.59-4.86,6.51-6.78A29.84,29.84,0,0,1,112,3.13c1.23-.75,2.74.21,3.7,1.17s1.44,1.64,1,2.46-1.91,3-2.67,4.66a53.18,53.18,0,0,0-2.74,5.82c.76-.54,2-1.5,2.74-2a29.79,29.79,0,0,0,3.7-3.22c.48-1,1.28-2,2.19-3.5,1.44-2.26,6-6.64,9.66-7.33,1.65-.31,3,.69,4.52,1.17a5.54,5.54,0,0,1,3.22,2.88c1.57,2.84-.07,7.33-3,10.61a26.09,26.09,0,0,1-9.38,6.78,6.19,6.19,0,0,1-5.28-.41,4.47,4.47,0,0,1-2.88-4.31,65,65,0,0,1-5.07,4.52,11.33,11.33,0,0,1-4,2,4.66,4.66,0,0,1-3.15-1.1,2.33,2.33,0,0,1-.89-3,28.67,28.67,0,0,1,2-5c.55-.88.28-.88-.07-.61s-2.26,2.67-3.56,4-3.83,4.52-5.07,6.1a1.77,1.77,0,0,1-2.19.61A5.51,5.51,0,0,1,92,23.27a3.26,3.26,0,0,1,.21-3.36,13.82,13.82,0,0,1,2-3.15c.42-.49.21-.75-.27-.34s-2.33,2.74-3.42,3.84-4.73,4.52-6.1,5.75-2.06,1.71-3.15,1.51-3.22-1.1-3.5-1.65a2.86,2.86,0,0,1-.06-3c-1.24,1-4,3.84-6.24,5.41s-3.69,1.37-6.09.55c-1-.34-3.15-2.54-2.33-4.18a86.77,86.77,0,0,1-9.25,6.78,4.18,4.18,0,0,1-4.31.34c-1.37-.68-2.06-1.71-2.33-3.9-1.24,1.23-3.29,3.08-5.41,5.21-.87.86-1.65,1.64-3.77.82s-2.74-1.78-2.81-2.81,0-1.92,0-2.88a32.51,32.51,0,0,1,2.33-7.87c-1.3.61-2.33,1.09-3.49,1.57.34,3.36-.83,6.3-3.43,10s-7.06,6.24-9.32,6.24A12,12,0,0,1,16,36.77c-.89-.48-3-2.4-2.54-6.31.08-.62-.2-.82-.2-.82C12,31.56,9.34,35.88,6.6,40.4,5.78,41.76,5,42.11,4.41,42a7.27,7.27,0,0,1-2.74-1.44C.57,39.64,0,39.23.1,37.66s.82-12.47,1.3-18.5C1.65,16,2.56,8.62,2.83,6.21c.21-1.78,1.31-2,3.29-2M19.76,32.93a11.1,11.1,0,0,0,6.44-4.86c1.57-2.4,1.64-3.29,1.78-4.18-1.3,0-2.4-.41-2.47-2,0-.27-.36-.43-1.23.34a14.31,14.31,0,0,0-4.59,6.85c-.48,2-.88,4.09.07,3.84M79.9,12c-2.26.55-3.77,1.51-6.3,3.63s-4.32,5.82-4.86,6.92-.69,1.64.82.61a89,89,0,0,0,7.53-6.37,32.2,32.2,0,0,0,3.29-4.31c.24-.39.46-.71-.48-.48M131,6.69a16,16,0,0,0-3.15,1.79,24.17,24.17,0,0,0-3.9,4.24,5.57,5.57,0,0,0-1,4.66c.27.41,1.37.48,3-.82s5.53-5.65,6-7.06c.89-2.53.14-3.42-1-2.81"/></g></svg>